<svg width="24" height="24" viewBox="0 0 24 24" fill="none" xmlns="http://www.w3.org/2000/svg">
<g clip-path="url(#clip0_39_1213)">
<path d="M16.3825 0.613495C16.4355 0.613495 16.4885 0.613495 16.5445 0.613495C16.6745 2.21949 16.0615 3.41949 15.3165 4.28849C14.5855 5.15149 13.5845 5.98849 11.9655 5.8615C11.8575 4.2785 12.4715 3.16749 13.2155 2.30049C13.9055 1.49249 15.1705 0.773495 16.3825 0.613495Z" fill="black"/>
<path d="M21.2835 17.3295C21.2835 17.3455 21.2835 17.3595 21.2835 17.3745C20.8285 18.7525 20.1795 19.9335 19.3875 21.0295C18.6645 22.0245 17.7785 23.3635 16.1965 23.3635C14.8295 23.3635 13.9215 22.4845 12.5205 22.4605C11.0385 22.4365 10.2235 23.1955 8.8685 23.3865C8.7135 23.3865 8.5585 23.3865 8.4065 23.3865C7.4115 23.2425 6.6085 22.4545 6.0235 21.7445C4.2985 19.6465 2.9655 16.9365 2.7175 13.4685C2.7175 13.1285 2.7175 12.7895 2.7175 12.4495C2.8225 9.96748 4.0285 7.94948 5.6315 6.97148C6.4775 6.45148 7.6405 6.00848 8.9355 6.20648C9.4905 6.29248 10.0575 6.48248 10.5545 6.67048C11.0255 6.85148 11.6145 7.17248 12.1725 7.15548C12.5505 7.14448 12.9265 6.94748 13.3075 6.80848C14.4235 6.40548 15.5175 5.94348 16.9595 6.16048C18.6925 6.42248 19.9225 7.19248 20.6825 8.38048C19.2165 9.31348 18.0575 10.7195 18.2555 13.1205C18.4315 15.3015 19.6995 16.5775 21.2835 17.3295Z" fill="black"/>
</g>
<defs>
<clipPath id="clip0_39_1213">
<rect width="22.773" height="22.773" fill="white" transform="translate(0.613495 0.613495)"/>
</clipPath>
</defs>
</svg>
