<svg width="40" height="40" viewBox="0 0 40 40" fill="none" xmlns="http://www.w3.org/2000/svg">
<g clip-path="url(#clip0_51_1945)">
<path d="M21.3375 19.317L30.339 32.1923H26.6448L19.2994 21.6861V21.6854L18.221 20.1431L9.64038 7.86927H13.3346L20.2591 17.7747L21.3375 19.317Z" fill="black"/>
<path d="M35.6779 0H4.32209C1.93513 0 0 1.93513 0 4.32209V35.6779C0 38.0649 1.93513 40 4.32209 40H35.6779C38.0649 40 40 38.0649 40 35.6779V4.32209C40 1.93513 38.0649 0 35.6779 0ZM25.5133 33.9208L18.0802 23.1029L8.77392 33.9208H6.3687L17.0122 21.5491L6.3687 6.05868H14.4867L21.5253 16.3025L30.3377 6.05868H32.743L22.5936 17.8566H22.593L33.6313 33.9208H25.5133Z" fill="black"/>
</g>
<defs>
<clipPath id="clip0_51_1945">
<rect width="40" height="40" fill="white"/>
</clipPath>
</defs>
</svg>
