<svg width="41" height="40" viewBox="0 0 41 40" fill="none" xmlns="http://www.w3.org/2000/svg">
<g clip-path="url(#clip0_51_1933)">
<path d="M32.1925 5.84753H8.80749C4.21938 5.84753 0.5 9.56692 0.5 14.155V25.8451C0.5 30.4332 4.21938 34.1525 8.80749 34.1525H32.1925C36.7806 34.1525 40.5 30.4332 40.5 25.8451V14.155C40.5 9.56692 36.7806 5.84753 32.1925 5.84753ZM26.5742 20.5688L15.6363 25.7855C15.3448 25.9245 15.0082 25.712 15.0082 25.3892V14.6296C15.0082 14.3022 15.3537 14.0899 15.6457 14.238L26.5837 19.7808C26.9089 19.9455 26.9032 20.4119 26.5742 20.5688Z" fill="#F61C0D"/>
</g>
<defs>
<clipPath id="clip0_51_1933">
<rect width="40" height="40" fill="white" transform="translate(0.5)"/>
</clipPath>
</defs>
</svg>
