<svg width="20" height="20" viewBox="0 0 20 20" fill="none" xmlns="http://www.w3.org/2000/svg">
<g clip-path="url(#clip0_138_717)">
<mask id="mask0_138_717" style="mask-type:luminance" maskUnits="userSpaceOnUse" x="0" y="0" width="20" height="20">
<path d="M0 0H20V20H0V0Z" fill="white"/>
</mask>
<g mask="url(#mask0_138_717)">
<path d="M12.4998 0.833333H3.33317C2.4165 0.833333 1.6665 1.58333 1.6665 2.5V13.3333C1.6665 13.7917 2.0415 14.1667 2.49984 14.1667C2.95817 14.1667 3.33317 13.7917 3.33317 13.3333V3.33333C3.33317 2.875 3.70817 2.5 4.1665 2.5H12.4998C12.9582 2.5 13.3332 2.125 13.3332 1.66667C13.3332 1.20833 12.9582 0.833333 12.4998 0.833333ZM15.8332 4.16667H6.6665C5.74984 4.16667 4.99984 4.91667 4.99984 5.83333V17.5C4.99984 18.4167 5.74984 19.1667 6.6665 19.1667H15.8332C16.7498 19.1667 17.4998 18.4167 17.4998 17.5V5.83333C17.4998 4.91667 16.7498 4.16667 15.8332 4.16667ZM14.9998 17.5H7.49984C7.0415 17.5 6.6665 17.125 6.6665 16.6667V6.66667C6.6665 6.20833 7.0415 5.83333 7.49984 5.83333H14.9998C15.4582 5.83333 15.8332 6.20833 15.8332 6.66667V16.6667C15.8332 17.125 15.4582 17.5 14.9998 17.5Z" fill="url(#paint0_linear_138_717)"/>
</g>
</g>
<defs>
<linearGradient id="paint0_linear_138_717" x1="1.6665" y1="10" x2="17.4998" y2="10" gradientUnits="userSpaceOnUse">
<stop stop-color="#FF5655"/>
<stop offset="1" stop-color="#D361FF"/>
</linearGradient>
<clipPath id="clip0_138_717">
<rect width="20" height="20" fill="white"/>
</clipPath>
</defs>
</svg>
