<svg width="11" height="12" viewBox="0 0 11 12" fill="none" xmlns="http://www.w3.org/2000/svg">
<g clip-path="url(#clip0_323_4089)">
<path d="M8.7085 3.70833C8.58694 3.70833 8.47036 3.75662 8.3844 3.84257C8.29845 3.92853 8.25016 4.0451 8.25016 4.16666V9.29587C8.23701 9.52764 8.13282 9.74483 7.96026 9.90013C7.78771 10.0554 7.56078 10.1362 7.32891 10.125H3.67141C3.43954 10.1362 3.21261 10.0554 3.04006 9.90013C2.86751 9.74483 2.76331 9.52764 2.75016 9.29587V4.16666C2.75016 4.0451 2.70187 3.92853 2.61592 3.84257C2.52997 3.75662 2.41339 3.70833 2.29183 3.70833C2.17027 3.70833 2.05369 3.75662 1.96774 3.84257C1.88178 3.92853 1.8335 4.0451 1.8335 4.16666V9.29587C1.84658 9.77081 2.04735 10.2212 2.39183 10.5484C2.73631 10.8756 3.19643 11.053 3.67141 11.0417H7.32891C7.8039 11.053 8.26401 10.8756 8.6085 10.5484C8.95298 10.2212 9.15375 9.77081 9.16683 9.29587V4.16666C9.16683 4.0451 9.11854 3.92853 9.03259 3.84257C8.94663 3.75662 8.83005 3.70833 8.7085 3.70833Z" fill="#FF5655"/>
<path d="M9.16667 2.33333H7.33333V1.41666C7.33333 1.2951 7.28504 1.17853 7.19909 1.09257C7.11314 1.00662 6.99656 0.958328 6.875 0.958328H4.125C4.00344 0.958328 3.88686 1.00662 3.80091 1.09257C3.71496 1.17853 3.66667 1.2951 3.66667 1.41666V2.33333H1.83333C1.71178 2.33333 1.5952 2.38162 1.50924 2.46757C1.42329 2.55353 1.375 2.6701 1.375 2.79166C1.375 2.91322 1.42329 3.0298 1.50924 3.11575C1.5952 3.20171 1.71178 3.25 1.83333 3.25H9.16667C9.28822 3.25 9.4048 3.20171 9.49076 3.11575C9.57671 3.0298 9.625 2.91322 9.625 2.79166C9.625 2.6701 9.57671 2.55353 9.49076 2.46757C9.4048 2.38162 9.28822 2.33333 9.16667 2.33333ZM4.58333 2.33333V1.875H6.41667V2.33333H4.58333Z" fill="#FF5655"/>
<path d="M5.04167 8.29167V5.08333C5.04167 4.96178 4.99338 4.8452 4.90742 4.75924C4.82147 4.67329 4.70489 4.625 4.58333 4.625C4.46178 4.625 4.3452 4.67329 4.25924 4.75924C4.17329 4.8452 4.125 4.96178 4.125 5.08333V8.29167C4.125 8.41322 4.17329 8.5298 4.25924 8.61576C4.3452 8.70171 4.46178 8.75 4.58333 8.75C4.70489 8.75 4.82147 8.70171 4.90742 8.61576C4.99338 8.5298 5.04167 8.41322 5.04167 8.29167Z" fill="#FF5655"/>
<path d="M6.87516 8.29167V5.08333C6.87516 4.96178 6.82687 4.8452 6.74092 4.75924C6.65497 4.67329 6.53839 4.625 6.41683 4.625C6.29527 4.625 6.17869 4.67329 6.09274 4.75924C6.00678 4.8452 5.9585 4.96178 5.9585 5.08333V8.29167C5.9585 8.41322 6.00678 8.5298 6.09274 8.61576C6.17869 8.70171 6.29527 8.75 6.41683 8.75C6.53839 8.75 6.65497 8.70171 6.74092 8.61576C6.82687 8.5298 6.87516 8.41322 6.87516 8.29167Z" fill="#FF5655"/>
</g>
<defs>
<clipPath id="clip0_323_4089">
<rect width="11" height="11" fill="white" transform="translate(0 0.5)"/>
</clipPath>
</defs>
</svg>
