<svg width="21" height="22" viewBox="0 0 21 22" fill="none" xmlns="http://www.w3.org/2000/svg">
<path d="M20.8665 10.5916C20.6789 10.335 16.2089 4.30774 10.4999 4.30774C4.79088 4.30774 0.320661 10.335 0.13326 10.5913C-0.04442 10.8348 -0.04442 11.165 0.13326 11.4085C0.320661 11.6651 4.79088 17.6924 10.4999 17.6924C16.2089 17.6924 20.6789 11.6651 20.8665 11.4087C21.0445 11.1653 21.0445 10.8348 20.8665 10.5916ZM10.4999 16.3077C6.2946 16.3077 2.65236 12.3074 1.57418 10.9996C2.65097 9.69064 6.28557 5.69235 10.4999 5.69235C14.705 5.69235 18.347 9.69203 19.4256 11.0005C18.3488 12.3094 14.7142 16.3077 10.4999 16.3077Z" fill="black"/>
<path d="M10.4998 6.84619C8.20941 6.84619 6.34595 8.70966 6.34595 11.0001C6.34595 13.2905 8.20941 15.1539 10.4998 15.1539C12.7902 15.1539 14.6537 13.2905 14.6537 11.0001C14.6537 8.70966 12.7902 6.84619 10.4998 6.84619ZM10.4998 13.7693C8.9728 13.7693 7.7306 12.527 7.7306 11.0001C7.7306 9.47308 8.97284 8.23084 10.4998 8.23084C12.0268 8.23084 13.269 9.47308 13.269 11.0001C13.269 12.527 12.0268 13.7693 10.4998 13.7693Z" fill="black"/>
</svg>
