<svg width="100" height="101" viewBox="0 0 100 101" fill="none" xmlns="http://www.w3.org/2000/svg">
<rect x="0.5" y="1" width="99" height="99" rx="49.5" stroke="black" stroke-dasharray="4 4"/>
<path d="M49.5001 43.84C48.0365 43.84 46.6058 44.274 45.3889 45.0871C44.172 45.9002 43.2235 47.056 42.6634 48.4081C42.1033 49.7603 41.9568 51.2482 42.2423 52.6837C42.5278 54.1191 43.2326 55.4377 44.2675 56.4726C45.3024 57.5075 46.621 58.2123 48.0564 58.4978C49.4919 58.7833 50.9798 58.6368 52.332 58.0767C53.6841 57.5166 54.8399 56.5681 55.653 55.3512C56.4661 54.1343 56.9001 52.7036 56.9001 51.24C56.9001 49.2774 56.1205 47.3952 54.7327 46.0074C53.3449 44.6196 51.4627 43.84 49.5001 43.84ZM49.5001 57.16C48.3292 57.16 47.1847 56.8128 46.2111 56.1623C45.2376 55.5118 44.4788 54.5872 44.0307 53.5055C43.5827 52.4237 43.4654 51.2334 43.6939 50.0851C43.9223 48.9367 44.4861 47.8819 45.314 47.0539C46.142 46.226 47.1968 45.6622 48.3452 45.4338C49.4935 45.2053 50.6838 45.3226 51.7656 45.7706C52.8473 46.2187 53.7719 46.9775 54.4224 47.951C55.0729 48.9246 55.4201 50.0691 55.4201 51.24C55.4201 52.8101 54.7964 54.3159 53.6862 55.4261C52.576 56.5363 51.0702 57.16 49.5001 57.16Z" fill="black"/>
<path d="M59.1201 40.88H55.8789L55.2647 39.6516C54.9832 39.1482 54.5778 38.7249 54.0871 38.4219C53.5963 38.1189 53.0363 37.9461 52.4601 37.92H46.5401C45.9639 37.9461 45.4039 38.1189 44.9131 38.4219C44.4223 38.7249 44.017 39.1482 43.7355 39.6516L43.1213 40.88H39.8801C38.5063 40.88 37.1887 41.4258 36.2173 42.3972C35.2458 43.3686 34.7001 44.6862 34.7001 46.06V57.9C34.7001 59.2738 35.2458 60.5914 36.2173 61.5628C37.1887 62.5343 38.5063 63.08 39.8801 63.08H59.1201C60.4939 63.08 61.8114 62.5343 62.7829 61.5628C63.7543 60.5914 64.3001 59.2738 64.3001 57.9V46.06C64.3001 44.6862 63.7543 43.3686 62.7829 42.3972C61.8114 41.4258 60.4939 40.88 59.1201 40.88ZM62.8201 57.9C62.8201 58.8813 62.4303 59.8224 61.7364 60.5163C61.0425 61.2102 60.1014 61.6 59.1201 61.6H39.8801C38.8988 61.6 37.9577 61.2102 37.2638 60.5163C36.5699 59.8224 36.1801 58.8813 36.1801 57.9V46.06C36.1801 45.0787 36.5699 44.1376 37.2638 43.4437C37.9577 42.7498 38.8988 42.36 39.8801 42.36H43.5801C43.7167 42.3596 43.8506 42.3213 43.9668 42.2495C44.0831 42.1777 44.1772 42.075 44.2387 41.953L45.0601 40.3176C45.2154 40.0574 45.4309 39.8383 45.6884 39.6787C45.9459 39.519 46.238 39.4234 46.5401 39.4H52.4601C52.7622 39.4234 53.0542 39.519 53.3118 39.6787C53.5693 39.8383 53.7847 40.0574 53.9401 40.3176L54.7615 41.953C54.823 42.075 54.917 42.1777 55.0333 42.2495C55.1495 42.3213 55.2834 42.3596 55.4201 42.36H59.1201C60.1014 42.36 61.0425 42.7498 61.7364 43.4437C62.4303 44.1376 62.8201 45.0787 62.8201 46.06V57.9Z" fill="black"/>
</svg>
