<svg width="25" height="24" viewBox="0 0 25 24" fill="none" xmlns="http://www.w3.org/2000/svg">
<path d="M21.6871 10.007C21.3623 9.81819 21.0705 9.5777 20.8231 9.295C20.8481 8.90141 20.9418 8.51525 21.1001 8.154C21.3911 7.333 21.7201 6.403 21.1921 5.68C20.6641 4.957 19.6671 4.98 18.7921 5C18.4054 5.03978 18.0148 5.0134 17.6371 4.922C17.4358 4.59451 17.2921 4.23498 17.2121 3.859C16.9641 3.014 16.6811 2.059 15.8121 1.773C14.9741 1.503 14.1981 2.097 13.5121 2.619C13.2161 2.88932 12.8731 3.10317 12.5001 3.25C12.1232 3.10437 11.7764 2.89046 11.4771 2.619C10.7931 2.1 10.0201 1.5 9.17807 1.774C8.31107 2.056 8.02807 3.014 7.77807 3.859C7.6982 4.23376 7.55588 4.59243 7.35707 4.92C6.97859 5.01116 6.5875 5.0382 6.20007 5C5.32207 4.976 4.33307 4.95 3.80007 5.68C3.26707 6.41 3.60007 7.333 3.89207 8.153C4.05251 8.51371 4.14765 8.90003 4.17307 9.294C3.92615 9.57708 3.63464 9.81791 3.31007 10.007C2.57807 10.507 1.74707 11.076 1.74707 12C1.74707 12.924 2.57807 13.491 3.31007 13.993C3.63457 14.1818 3.92607 14.4223 4.17307 14.705C4.15033 15.0988 4.05789 15.4855 3.90007 15.847C3.61007 16.667 3.28207 17.597 3.80907 18.32C4.33607 19.043 5.33007 19.02 6.20907 19C6.59604 18.9602 6.98696 18.9866 7.36507 19.078C7.56545 19.4058 7.70881 19.7653 7.78907 20.141C8.03707 20.986 8.32007 21.941 9.18907 22.227C9.32839 22.2717 9.47376 22.2946 9.62007 22.295C10.3233 22.1941 10.9769 21.8743 11.4881 21.381C11.7841 21.1107 12.1271 20.8968 12.5001 20.75C12.877 20.8956 13.2238 21.1095 13.5231 21.381C14.2081 21.904 14.9841 22.501 15.8231 22.226C16.6901 21.944 16.9731 20.986 17.2231 20.142C17.3032 19.7665 17.4466 19.4074 17.6471 19.08C18.0241 18.9882 18.414 18.9612 18.8001 19C19.6781 19.021 20.6671 19.05 21.2001 18.32C21.7331 17.59 21.4001 16.667 21.1081 15.846C20.9487 15.4856 20.8536 15.1001 20.8271 14.707C21.0741 14.4237 21.366 14.1828 21.6911 13.994C22.4231 13.494 23.2541 12.924 23.2541 12C23.2541 11.076 22.4201 10.508 21.6871 10.007Z" fill="#49ADF4"/>
<path d="M11.5001 14.75C11.4016 14.7502 11.304 14.7308 11.2131 14.6931C11.1221 14.6553 11.0395 14.5999 10.9701 14.53L8.97009 12.53C8.83761 12.3878 8.76549 12.1998 8.76892 12.0055C8.77234 11.8112 8.85106 11.6258 8.98847 11.4884C9.12588 11.351 9.31127 11.2723 9.50557 11.2688C9.69987 11.2654 9.88792 11.3375 10.0301 11.47L11.5701 13.01L15.0501 10.4C15.2092 10.2807 15.4092 10.2294 15.6062 10.2575C15.8031 10.2857 15.9807 10.3909 16.1001 10.55C16.2194 10.7091 16.2707 10.9092 16.2426 11.1061C16.2144 11.303 16.1092 11.4807 15.9501 11.6L11.9501 14.6C11.8202 14.6973 11.6624 14.7499 11.5001 14.75Z" fill="white"/>
</svg>
