<svg width="36" height="36" viewBox="0 0 36 36" fill="none" xmlns="http://www.w3.org/2000/svg">
<rect x="0.75" y="0.75" width="34.5" height="34.5" rx="9.75" fill="#ECF53A"/>
<rect x="0.75" y="0.75" width="34.5" height="34.5" rx="9.75" stroke="#B2BA20" stroke-width="1.5"/>
<path d="M24.1856 16.3185L25.2651 15.239C26.0417 14.4621 26.0417 13.2032 25.2651 12.4263C24.8747 12.0363 24.3633 11.842 23.8513 11.844C23.4693 11.8453 23.1051 12.0061 22.835 12.2762L18.7927 16.3185L22.835 20.3608C23.5005 21.0402 24.616 20.8624 25.2651 20.2107C26.0417 19.4338 26.0417 18.175 25.2651 17.3981L24.1856 16.3185Z" fill="#0F172A"/>
<path d="M10.7348 20.2105C11.384 20.8621 12.499 21.0401 13.1649 20.3606L17.2072 16.3183L13.1649 12.2761C12.4994 11.5967 11.384 11.7745 10.7348 12.4261C9.9582 13.203 9.9582 14.4619 10.7348 15.2388L11.8143 16.3183L10.7348 17.3979C9.9582 18.1748 9.9582 19.4336 10.7348 20.2105Z" fill="#0F172A"/>
<path d="M13.9579 11.4836L18.0001 15.5259L22.0423 11.4836C22.3125 11.2135 22.4732 10.8492 22.4747 10.4672C22.4747 9.9123 22.2553 9.41678 21.8923 9.05344C21.1154 8.27686 19.8565 8.27686 19.0796 9.05344L18.0001 10.133L16.9205 9.05344C16.1436 8.27686 14.8848 8.27686 14.1079 9.05344C13.7179 9.44391 13.5236 9.95524 13.5255 10.4672C13.5269 10.8493 13.6877 11.2135 13.9579 11.4836Z" fill="#0F172A"/>
<path d="M22.0423 21.1534L18 17.1112L13.9578 21.1534C13.2784 21.819 13.4562 22.9344 14.1078 23.5836C14.8847 24.3602 16.1436 24.3602 16.9205 23.5836L17.4395 23.0646V23.6055C17.4395 25.1509 16.1822 26.4082 14.6368 26.4082H10.713V27.5293H14.6368C16.8004 27.5293 18.5606 25.7691 18.5606 23.6055V23.0646L19.0796 23.5836C19.8565 24.3602 21.1154 24.3602 21.8923 23.5836C22.2552 23.2204 22.4747 22.7249 22.4747 22.1698C22.4732 21.7878 22.3124 21.4235 22.0423 21.1534Z" fill="#0F172A"/>
</svg>
